<?xml version="1.0" encoding="UTF-8" ?>
<svg xmlns="http://www.w3.org/2000/svg" version="2.0" width="1400" height="400">
<polyline points="50,400 50.0,318.75 63.68421052631579,262.5 77.36842105263158,206.24999999999997 91.05263157894737,149.99999999999997 104.73684210526315,93.74999999999994 118.42105263157895,93.74999999999994 132.10526315789474,99.99999999999991 145.78947368421052,99.99999999999991 159.4736842105263,99.99999999999991 173.1578947368421,99.99999999999991 186.8421052631579,99.99999999999991 200.52631578947367,99.99999999999991 214.21052631578948,99.99999999999991 227.89473684210526,99.99999999999991 241.57894736842104,99.99999999999991 255.26315789473685,99.99999999999991 268.9473684210526,99.99999999999991 282.63157894736844,99.99999999999991 296.3157894736842,99.99999999999991 310.0,99.99999999999991 323.6842105263158,99.99999999999991 337.36842105263156,99.99999999999991 351.05263157894734,99.99999999999991 364.7368421052632,99.99999999999991 378.42105263157896,99.99999999999991 392.10526315789474,84.37499999999989 405.7894736842105,68.74999999999983 419.4736842105263,56.25 433.1578947368421,50.0 446.8421052631579,53.124999999999886 460.5263157894737,56.249999999999886 474.2105263157895,56.249999999999886 487.89473684210526,56.249999999999886 501.57894736842104,53.124999999999886 515.2631578947369,71.87499999999994 528.9473684210526,90.62499999999994 542.6315789473684,109.37499999999989 556.3157894736842,121.87499999999986 570.0,121.87499999999986 583.6842105263158,121.87499999999986 597.3684210526316,128.12499999999986 611.0526315789474,134.37499999999994 624.7368421052631,140.62499999999991 638.421052631579,140.62499999999991 652.1052631578947,140.62499999999991 665.7894736842105,137.49999999999991 679.4736842105264,134.37499999999994 693.1578947368421,134.37499999999994 706.8421052631579,131.24999999999986 720.5263157894736,124.99999999999983 734.2105263157895,115.62499999999986 747.8947368421052,109.37499999999989 761.578947368421,103.12499999999991 775.2631578947369,96.87499999999994 788.9473684210526,90.62499999999994 802.6315789473684,84.375 816.3157894736842,78.125 830.0,75.0 843.6842105263158,71.87499999999994 857.3684210526316,71.87499999999994 871.0526315789474,71.87499999999994 884.7368421052631,71.87499999999994 898.421052631579,84.37499999999989 912.1052631578947,87.49999999999994 925.7894736842105,99.99999999999991 939.4736842105264,109.375 953.1578947368421,121.87499999999994 966.8421052631579,131.25000000000006 980.5263157894736,140.625 994.2105263157895,153.12499999999997 1007.8947368421052,153.12499999999997 1021.578947368421,137.49999999999991 1035.2631578947369,131.25000000000006 1048.9473684210525,112.49999999999997 1062.6315789473683,100.00000000000003 1076.3157894736842,90.62500000000006 1090.0,93.74999999999994 1103.6842105263158,87.49999999999994 1117.3684210526317,87.49999999999989 1131.0526315789473,96.87499999999994 1144.7368421052631,112.49999999999989 1158.421052631579,115.62499999999997 1172.1052631578948,118.74999999999994 1185.7894736842104,118.74999999999994 1199.4736842105262,109.375 1213.157894736842,93.75000000000006 1226.842105263158,93.75000000000006 1240.5263157894738,93.74999999999994 1254.2105263157894,87.49999999999994 1267.8947368421052,87.49999999999989 1281.578947368421,96.87499999999994 1295.2631578947369,103.12499999999991 1308.9473684210527,165.62500000000003 1322.6315789473683,231.25 1336.3157894736842,293.75 1350.0,350.0 1350,400 50,400" style="fill:white;stroke:red;stroke-width:4" />
</svg>